PathFileType	4	(X/Y/Z)	C:\Users\Basilio\Documents\Thesis Gigler\squatting_fais\c3dfiles\039\SJ_pre1\markers_experimental.trc
DataRate	CameraRate	NumFrames	NumMarkers	Units	OrigDataRate	OrigDataStartFrame	OrigNumFrames
200.000000	200.000000	4	61	mm	200.000000	1625	1858
Frame#	Time	FHD			LBHD			RBHD			C7			T10			CLAV			LSHO			LUUPA			LMUPA			LDUPA			LLEP			LMEP			LRAD			LUL			LRFIN			RSHO			RUPA1			RMUPA			RDUPA			RLEP			RMEP			RRAD			RUL			RUFIN			LASI			RASI			USACR			LSACR			RSACR			LTHI1			LTHI2			LTHI3			LTHI4			LLFC			LMFC			LTIB1			LTIB2			LTIB3			LTIB4			LLMAL			LMMAL			LHEE			LMT1			LMT2			LMT5			RTHI			RTHI2			RTHI3			RTHI4			RLFC			RMFC			RTIB1			RTIB2			RTIB3			RTIB4			RLMAL			RMMAL			RHEE			RMT1			RMT2			RMT5			
		X1	Y1	Z1	X2	Y2	Z2	X3	Y3	Z3	X4	Y4	Z4	X5	Y5	Z5	X6	Y6	Z6	X7	Y7	Z7	X8	Y8	Z8	X9	Y9	Z9	X10	Y10	Z10	X11	Y11	Z11	X12	Y12	Z12	X13	Y13	Z13	X14	Y14	Z14	X15	Y15	Z15	X16	Y16	Z16	X17	Y17	Z17	X18	Y18	Z18	X19	Y19	Z19	X20	Y20	Z20	X21	Y21	Z21	X22	Y22	Z22	X23	Y23	Z23	X24	Y24	Z24	X25	Y25	Z25	X26	Y26	Z26	X27	Y27	Z27	X28	Y28	Z28	X29	Y29	Z29	X30	Y30	Z30	X31	Y31	Z31	X32	Y32	Z32	X33	Y33	Z33	X34	Y34	Z34	X35	Y35	Z35	X36	Y36	Z36	X37	Y37	Z37	X38	Y38	Z38	X39	Y39	Z39	X40	Y40	Z40	X41	Y41	Z41	X42	Y42	Z42	X43	Y43	Z43	X44	Y44	Z44	X45	Y45	Z45	X46	Y46	Z46	X47	Y47	Z47	X48	Y48	Z48	X49	Y49	Z49	X50	Y50	Z50	X51	Y51	Z51	X52	Y52	Z52	X53	Y53	Z53	X54	Y54	Z54	X55	Y55	Z55	X56	Y56	Z56	X57	Y57	Z57	X58	Y58	Z58	X59	Y59	Z59	X60	Y60	Z60	X61	Y61	Z61	

1626	8.125	-217.0603637695313	1779.79052734375	-832.7542724609377	-339.2532653808594	1711.968627929688	-976.182312011719	-338.6510009765626	1722.220825195313	-835.398132324219	-361.1367797851563	1569.148071289063	-907.2676391601565	-382.9200134277344	1254.394775390625	-905.2034912109377	-218.5101928710938	1496.724365234375	-903.7923583984377	-270.6105957031251	1547.52734375	-1094.024047851563	-364.9379882812501	1412.985107421875	-1255.380981445313	-330.3318176269532	1376.72998046875	-1257.663452148438	-371.3343505859376	1357.617431640625	-1298.299926757813	-371.2810668945313	1291.0439453125	-1325.647338867188	-449.1996154785157	1280.28759765625	-1282.692260742188	-364.7379455566407	1070.694458007813	-1131.179931640625	-322.9626159667969	1042.265747070313	-1187.5576171875	-310.4053344726563	1074.150024414063	-1086.8193359375	-256.6168212890626	1544.912109375	-711.9544067382814	-383.9721984863282	1434.240966796875	-563.6151123046876	-354.6531982421876	1396.717529296875	-547.2792358398439	-405.3548583984376	1385.378662109375	-517.7987060546876	-404.739471435547	1321.938110351563	-484.4488525390626	-477.7322998046876	1307.696655273438	-535.1550292968751	-342.1326904296876	1116.724609375	-690.4293212890626	-331.7021484375001	1069.593872070313	-630.6519165039064	-283.9237976074219	1091.183349609375	-731.8900146484376	-224.609115600586	1058.504638671875	-1016.609313964844	-222.8251190185547	1044.232788085938	-799.599304199219	-403.191619873047	1124.680419921875	-899.9674072265627	-410.3081665039064	1094.3642578125	-928.9041748046877	-410.7869567871095	1094.21875	-870.4287719726565	-301.4908447265626	787.617370605469	-1101.916015625	-267.2821044921876	710.2682495117189	-1108.432739257813	-218.9869232177735	713.8914794921876	-1101.923706054688	-292.6167297363282	656.3947753906251	-1096.072631835938	-291.3449707031251	534.9236450195314	-1099.257446289063	-251.1183166503907	503.3908996582032	-989.9778442382815	-245.1011047363282	382.6587829589844	-1090.016235351563	-319.7979736328126	350.5026855468751	-1125.204467773438	-278.4516906738282	341.7515563964844	-1113.239624023438	-280.5766601562501	259.1993408203126	-1078.684814453125	-362.5791625976563	99.58544921875003	-1111.169921875	-334.0482177734376	95.26574707031251	-1028.243774414063	-426.0103454589845	41.26213455200196	-1066.78369140625	-191.9519195556641	55.89705657958986	-1086.20849609375	-203.5666198730469	54.55374908447267	-1127.298217773438	-254.7036743164063	31.43938446044923	-1172.145141601563	-281.2394409179688	789.102966308594	-707.4025878906251	-239.0448760986329	737.5169067382814	-698.6416625976564	-207.4101867675782	741.7779541015626	-704.6713867187501	-262.4032287597657	655.0821533203126	-702.5562744140626	-288.1822814941407	515.2134399414064	-715.9108886718751	-242.5398406982422	493.3207397460939	-823.654724121094	-263.7991027832032	302.9745483398438	-704.5213012695314	-353.7830810546876	244.2160644531251	-697.9611816406251	-308.7950744628907	232.8905487060547	-691.8243408203126	-292.0361633300782	180.1912689208985	-717.4157104492189	-365.3677978515626	92.23680877685548	-690.6856689453126	-327.9259338378907	99.02918243408206	-773.064392089844	-425.0572814941407	40.46448135375977	-740.9131469726564	-192.2482452392579	52.19805145263673	-719.1563110351564	-201.8158569335938	56.30275344848634	-673.5985717773439	-258.4447937011719	29.53886222839356	-626.0501708984376	
1627	8.130000000000001	-217.1194305419922	1779.70947265625	-832.475280761719	-339.0267639160157	1711.976440429688	-976.0422973632815	-338.8101501464844	1722.180419921875	-835.1138916015627	-361.2225036621094	1569.111938476563	-907.0193481445315	-383.0022583007813	1254.330810546875	-905.0263671875002	-218.724838256836	1496.7080078125	-903.6553955078127	-270.8206176757813	1547.595947265625	-1093.90087890625	-365.1110534667969	1412.9951171875	-1255.272094726563	-330.3897399902344	1376.884643554688	-1257.449340820313	-371.4836120605469	1357.62255859375	-1298.154052734375	-371.4810180664063	1291.045654296875	-1325.481201171875	-449.4347534179689	1280.264038085938	-1282.456298828125	-366.0887145996094	1070.751342773438	-1131.373779296875	-323.1050109863282	1042.24169921875	-1187.387084960938	-310.5230407714844	1074.177978515625	-1086.688232421875	-256.7525939941407	1544.793334960938	-711.7908935546876	-384.0722045898439	1434.090087890625	-563.4614868164064	-354.6792297363282	1396.5693359375	-547.1406250000001	-405.4049072265626	1385.322387695313	-517.6007690429689	-404.7351989746095	1321.90380859375	-484.2949218750001	-477.6937561035157	1307.540161132813	-534.8832397460939	-342.0875549316407	1116.64990234375	-690.2548828125001	-331.7236328125001	1069.506591796875	-630.5305175781251	-283.8915405273438	1091.143798828125	-731.7933959960939	-224.6954040527344	1058.510986328125	-1016.537231445313	-222.8911437988282	1044.153442382813	-799.4888305664065	-403.3112792968751	1124.599243164063	-899.7539062500002	-410.3182067871095	1094.32666015625	-928.7784423828127	-410.8235473632814	1094.19970703125	-870.309509277344	-301.6945800781251	787.6365966796877	-1101.840698242188	-267.4058837890626	710.2886352539064	-1108.384399414063	-219.0902252197266	713.9147338867189	-1101.823852539063	-292.7181701660157	656.3425903320314	-1096.010009765625	-291.4161987304688	534.9695434570314	-1099.204956054688	-251.6504669189454	503.1802978515626	-990.0977783203127	-245.1746215820313	382.6641540527344	-1089.947509765625	-319.7591552734376	350.4810791015626	-1125.177001953125	-278.5335693359376	341.8497924804688	-1113.192626953125	-280.6688537597657	259.2739257812501	-1078.713012695313	-362.5806579589844	99.60626983642581	-1111.106323242188	-334.0217895507813	95.22632598876955	-1028.235961914063	-425.9456481933595	41.21923828125001	-1066.781494140625	-191.936996459961	55.89323806762697	-1086.182373046875	-203.6727447509766	54.54449462890626	-1127.288208007813	-254.6861114501954	31.4692611694336	-1172.161376953125	-281.2716979980469	789.0425415039065	-707.3166503906251	-239.0027618408204	737.5317993164064	-698.5570068359376	-207.4107360839844	741.8181152343751	-704.5633544921876	-262.4097290039063	655.0933227539064	-702.4636840820314	-288.1567077636719	515.1947631835939	-715.8441162109376	-242.5336608886719	493.2588806152345	-823.5867309570315	-263.7080078125001	302.9471740722657	-704.5528564453126	-353.7670593261719	244.1903076171876	-697.8925781250001	-308.8138732910157	232.9271087646485	-691.7702636718751	-292.0390625000001	180.1940155029297	-717.4243774414064	-365.3452148437501	92.24832153320314	-690.7172851562501	-327.9153442382813	99.01502227783206	-773.0559692382815	-425.0665588378907	40.40491104125977	-740.9412841796876	-192.2422637939454	52.26950073242189	-719.0824584960939	-201.8102722167969	56.2694435119629	-673.5969848632814	-258.4085083007813	29.5223731994629	-626.0333251953126	
1628	8.135	-217.1469268798829	1779.660888671875	-832.2979125976565	-339.1228942871094	1712.003051757813	-975.835632324219	-338.9394531250001	1722.159057617188	-834.8869628906252	-361.2807617187501	1569.15283203125	-906.878356933594	-383.0214538574219	1254.362548828125	-904.8806762695315	-218.8838958740235	1496.63427734375	-903.399597167969	-270.9897766113282	1547.567504882813	-1093.691162109375	-365.1818847656251	1412.999877929688	-1255.199829101563	-330.5740356445313	1376.879638671875	-1257.281494140625	-371.6683654785157	1357.585083007813	-1298.01953125	-371.7518615722657	1290.96435546875	-1325.367309570313	-449.5709533691407	1280.2080078125	-1282.271728515625	-366.2488708496094	1070.734130859375	-1131.184814453125	-323.1555175781251	1042.228393554688	-1187.335693359375	-310.5988159179688	1074.194091796875	-1086.577514648438	-256.7947082519532	1544.74560546875	-711.6359863281251	-384.0355529785157	1434.028076171875	-563.2990722656251	-354.7025146484376	1396.44775390625	-546.9606323242189	-405.4080200195314	1385.193115234375	-517.4616699218751	-404.7080078125001	1321.82861328125	-484.134246826172	-477.692352294922	1307.504028320313	-534.7435913085939	-342.0702819824219	1116.551147460938	-690.1178588867189	-331.7832336425782	1069.371215820313	-630.3502197265626	-283.9198913574219	1091.09033203125	-731.6633911132814	-224.7298278808594	1058.458251953125	-1016.433532714844	-222.9017639160157	1044.1689453125	-799.428649902344	-403.4274291992189	1124.629150390625	-899.6005859375002	-410.433319091797	1094.30908203125	-928.6672363281252	-410.8551025390626	1094.190551757813	-870.138610839844	-301.7514343261719	787.626647949219	-1101.733764648438	-267.5416870117188	710.3062133789064	-1108.33837890625	-219.2700500488282	713.9878540039064	-1101.818115234375	-292.8944396972657	656.3983154296876	-1095.95361328125	-291.5838623046876	534.9628906250001	-1099.163208007813	-251.2940826416016	503.3905029296876	-989.8577270507815	-245.2199249267579	382.6847839355469	-1089.913452148438	-319.9062805175782	350.5087890625001	-1125.141723632813	-278.6511230468751	341.8914794921876	-1113.155151367188	-280.7446594238282	259.2575073242188	-1078.66552734375	-362.6567993164063	99.5866394042969	-1111.085205078125	-334.0315246582032	95.2031936645508	-1028.267333984375	-425.927215576172	41.16173934936524	-1066.791625976563	-191.9444732666016	55.89894485473634	-1086.1962890625	-203.6686553955079	54.54224395751955	-1127.351684570313	-254.6436462402344	31.41356277465821	-1172.153198242188	-281.2815551757813	789.0227661132815	-707.2400512695314	-238.9815063476563	737.6497802734376	-698.4793090820314	-207.4002227783204	741.7888183593751	-704.5114135742189	-262.3206787109376	655.1092529296876	-702.3499145507814	-288.1491699218751	515.1414794921876	-715.8194580078126	-242.817855834961	493.0657958984376	-823.1419677734377	-263.7027282714844	302.9277648925782	-704.5032958984376	-353.7325439453126	244.1948242187501	-697.8926391601564	-308.8061218261719	232.8807373046876	-691.7449340820314	-292.0342712402344	180.1959533691407	-717.3908081054689	-365.3591613769532	92.19165802001955	-690.6931762695314	-327.8950500488282	98.99506378173831	-773.074645996094	-424.8856506347657	40.22287750244141	-740.9987182617189	-192.2251129150391	52.25670242309572	-719.0697021484376	-201.8211212158204	56.26048278808595	-673.6044311523439	-258.4147949218751	29.51595878601075	-626.0314941406251	
1629	8.140000000000001	-217.1325378417969	1779.6640625	-832.0957641601565	-339.1374511718751	1712.039916992188	-975.6802368164065	-339.0847167968751	1722.193725585938	-834.762390136719	-361.4457092285157	1569.176513671875	-906.698913574219	-383.1327209472657	1254.395629882813	-904.7258300781252	-219.0909271240235	1496.571411132813	-903.199890136719	-271.1339416503907	1547.55908203125	-1093.6025390625	-365.3210754394532	1412.9658203125	-1255.064331054688	-330.3029785156251	1376.850708007813	-1257.610107421875	-371.6521301269532	1357.59814453125	-1297.975463867188	-372.0350952148438	1290.859252929688	-1325.296264648438	-449.7265625000001	1280.13818359375	-1282.113525390625	-366.3655090332032	1070.698852539063	-1131.112426757813	-323.2734680175782	1042.19189453125	-1187.277587890625	-310.7034606933594	1074.171875	-1086.453857421875	-256.9588623046876	1544.4794921875	-711.6496582031251	-384.1118469238282	1433.853637695313	-563.2127075195314	-354.6852111816407	1396.433715820313	-546.8041992187501	-405.3813781738282	1385.157348632813	-517.2914428710939	-404.6897277832032	1321.72265625	-483.9255371093751	-477.7211303710939	1307.373901367188	-534.5720214843751	-341.9971923828126	1116.470092773438	-689.9732055664064	-331.7684631347657	1069.275146484375	-630.3256835937501	-283.9160156250001	1091.025512695313	-731.6060791015626	-224.9210510253907	1058.4462890625	-1016.34326171875	-222.999984741211	1044.144287109375	-799.2812500000002	-403.5784912109376	1124.599609375	-899.4418945312502	-410.4919433593751	1094.2890625	-928.539245605469	-411.0175781250001	1094.220458984375	-870.033142089844	-301.9988708496094	787.700134277344	-1101.674438476563	-267.6585083007813	710.3285522460939	-1108.274658203125	-219.4055938720704	713.9828491210939	-1101.74560546875	-293.0209655761719	656.3891601562501	-1095.8896484375	-291.6154785156251	534.9533081054689	-1099.116821289063	-251.444564819336	503.396697998047	-989.9187622070315	-245.2970733642579	382.7076416015626	-1089.86572265625	-319.9558715820313	350.5473632812501	-1125.111694335938	-278.7201232910157	341.8848266601563	-1113.146850585938	-280.7580261230469	259.3575134277344	-1078.700927734375	-362.6914367675782	99.60760498046878	-1111.10546875	-334.0701904296876	95.21007537841798	-1028.275634765625	-426.0223083496095	41.2497673034668	-1066.7734375	-191.9671478271485	55.86068344116212	-1086.201416015625	-203.6634368896485	54.55281066894533	-1127.34375	-254.7272033691407	31.44001579284669	-1172.171630859375	-281.2540893554688	789.037536621094	-707.1736450195314	-238.9962463378907	737.7161865234376	-698.4056396484376	-207.3689270019532	741.7977905273439	-704.4328613281251	-262.3887023925782	654.9836425781251	-702.3367309570314	-288.1445922851563	515.1577148437501	-715.7358398437501	-242.7429351806641	493.0817260742189	-823.1180419921877	-263.6487426757813	302.9219055175782	-704.4622192382814	-353.6930236816407	244.1561279296876	-697.8511352539064	-308.7829589843751	232.8461456298829	-691.7183837890626	-292.0174560546876	180.1974334716797	-717.3519897460939	-365.3462829589844	92.2050018310547	-690.6965332031251	-327.9461669921876	99.01375579833987	-773.0437011718752	-425.0449523925782	40.45234680175782	-740.9241943359376	-192.2786102294922	52.19531250000001	-719.1683349609376	-201.8095397949219	56.29042053222658	-673.6306762695314	-258.3875732421876	29.52316474914551	-626.0472412109376	
